<svg xmlns:xlink="http://www.w3.org/1999/xlink" width="100" fill="none" xmlns="http://www.w3.org/2000/svg" style="background: #25d1da;" viewBox="0 0 100 100" height="100">
<g clip-path="url(#clip0_4522_1429)" style="transform: translate(-10px,-15px);">





<path d="M79.1746 64.1117C79.4165 64.6678 80.1152 64.668 81.2008 64.4504C84.0953 63.8214 87.7616 63.773 88.3887 64.6437C88.9919 65.5388 87.6652 68.9733 86.0973 71.4885C85.5184 72.456 85.2772 73.0608 85.7597 73.5203C85.8803 73.6655 86.0491 73.7138 86.2421 73.7379C86.821 73.7379 87.5688 73.1575 88.2683 72.5044C89.7878 71.1741 90.9698 69.4811 91.6211 67.5703C92.2723 65.7321 92.5859 63.1442 91.9106 62.1526C91.2593 61.2092 88.7266 60.5804 86.7727 60.6047C84.7225 60.6047 82.7445 61.1126 80.9596 62.0558C79.85 62.6605 78.8378 63.3374 79.1746 64.1117Z" fill="black"/>
<path d="M25.65 63.0956C25.8161 63.6045 26.2047 64.2324 26.7836 64.9579C34.1888 74.1248 46.1046 78.1398 57.6103 78.1398C67.669 78.1398 77.3898 75.0923 83.5647 69.7228C84.6261 68.7796 85.1808 68.0297 85.1808 67.4493C85.1808 67.2074 85.0844 67.0138 84.9154 66.8205C84.3849 66.2641 83.5887 66.6753 82.6239 67.1833C76.8831 70.2066 68.0548 72.2866 58.6717 72.2866C48.0826 72.2866 36.7457 69.6503 28.1585 62.7087C27.3385 62.0556 26.446 61.4025 25.8428 61.8864C25.6258 62.0556 25.4293 62.4196 25.65 63.0956Z" fill="black"/>






</g>
<defs>
<clipPath id="clip0_4522_1429">
<rect width="117" height="76.2794" fill="white" transform="translate(0 1.86035)"/>
</clipPath>
</defs>
</svg>